<svg aria-hidden="true" viewBox="0 0 24 24">
  <path
    fill="#1DB954"
    d="M12 0a12 12 0 100 24 12 12 0 000-24zm5.236 17.75c-.25.37-.726.481-1.098.243-3.012-1.869-6.809-2.287-11.264-1.284a.755.755 0 01-.446-1.442c4.927-1.122 9.143-.658 12.424 1.373.4.247.522.773.237 1.11zm1.554-3.349c-.31.465-.902.605-1.364.346-3.474-2.155-8.79-2.787-12.936-1.566-.517.157-1.056-.17-1.217-.69a.963.963 0 01.688-1.197c4.649-1.356 10.512-.647 14.4 1.756.462.27.624.853.43 1.351zm.256-3.427c-.39.598-1.186.79-1.78.43-4.076-2.53-10.316-3.283-14.868-1.848a1.087 1.087 0 01-1.353-.68 1.05 1.05 0 01.683-1.352c4.973-1.597 12.058-.776 16.829 2.088.553.343.72 1.087.386 1.362z"
  />
</svg>
